<svg width="24" height="24" viewBox="0 0 24 24" fill="none" xmlns="http://www.w3.org/2000/svg">
<mask id="path-1-inside-1_2_5859" fill="white">
<path fill-rule="evenodd" clip-rule="evenodd" d="M5.28249 19.4246C6.20078 20.3429 7.56627 20.5414 8.67792 20.0202C9.09541 21.1748 10.2013 22 11.5 22H12.5C13.7987 22 14.9046 21.1748 15.3221 20.0202C16.4337 20.5414 17.7992 20.3429 18.7175 19.4246L19.4246 18.7175C20.3429 17.7992 20.5414 16.4337 20.0202 15.3221C21.1748 14.9046 22 13.7987 22 12.5V11.5C22 10.2013 21.1748 9.09541 20.0202 8.67793C20.5414 7.56627 20.3429 6.20078 19.4246 5.28249L18.7175 4.57538C17.7992 3.65709 16.4337 3.45856 15.3221 3.97981C14.9046 2.82517 13.7987 2 12.5 2H11.5C10.2013 2 9.09541 2.82517 8.67793 3.97981C7.56627 3.45856 6.20078 3.65709 5.28249 4.57538L4.57538 5.28248C3.65709 6.20078 3.45857 7.56627 3.97981 8.67792C2.82518 9.09541 2 10.2013 2 11.5V12.5C2 13.7987 2.82517 14.9046 3.97981 15.3221C3.45856 16.4337 3.65709 17.7992 4.57538 18.7175L5.28249 19.4246ZM12 14C13.1046 14 14 13.1046 14 12C14 10.8954 13.1046 10 12 10C10.8954 10 10 10.8954 10 12C10 13.1046 10.8954 14 12 14Z"/>
</mask>
<path d="M8.67792 20.0202L11.029 19.1701L10.0973 16.5935L7.61658 17.7567L8.67792 20.0202ZM5.28249 19.4246L3.51472 21.1924H3.51472L5.28249 19.4246ZM15.3221 20.0202L16.3834 17.7567L13.9027 16.5935L12.971 19.1701L15.3221 20.0202ZM19.4246 18.7175L17.6569 16.9497L17.6569 16.9497L19.4246 18.7175ZM20.0202 15.3221L19.1701 12.971L16.5935 13.9027L17.7567 16.3834L20.0202 15.3221ZM20.0202 8.67793L17.7567 7.61658L16.5935 10.0973L19.1701 11.029L20.0202 8.67793ZM19.4246 5.28249L21.1924 3.51472V3.51472L19.4246 5.28249ZM18.7175 4.57538L16.9497 6.34315L16.9497 6.34315L18.7175 4.57538ZM15.3221 3.97981L12.971 4.82988L13.9027 7.40652L16.3834 6.24333L15.3221 3.97981ZM8.67793 3.97981L7.61658 6.24333L10.0973 7.40652L11.029 4.82988L8.67793 3.97981ZM5.28249 4.57538L7.05025 6.34314L7.05025 6.34314L5.28249 4.57538ZM4.57538 5.28248L6.34315 7.05025L4.57538 5.28248ZM3.97981 8.67792L4.82988 11.029L7.40652 10.0973L6.24333 7.61658L3.97981 8.67792ZM3.97981 15.3221L6.24333 16.3834L7.40653 13.9027L4.82988 12.971L3.97981 15.3221ZM4.57538 18.7175L6.34315 16.9497L6.34315 16.9497L4.57538 18.7175ZM7.61658 17.7567C7.42785 17.8452 7.20053 17.8071 7.05025 17.6569L3.51472 21.1924C5.20103 22.8787 7.70469 23.2377 9.73927 22.2837L7.61658 17.7567ZM11.5 19.5C11.2875 19.5 11.0998 19.3661 11.029 19.1701L6.32689 20.8703C7.09098 22.9835 9.1152 24.5 11.5 24.5V19.5ZM12.5 19.5H11.5V24.5H12.5V19.5ZM12.971 19.1701C12.9002 19.3661 12.7125 19.5 12.5 19.5V24.5C14.8848 24.5 16.909 22.9835 17.6731 20.8703L12.971 19.1701ZM16.9497 17.6569C16.7995 17.8071 16.5721 17.8452 16.3834 17.7567L14.2607 22.2837C16.2953 23.2377 18.799 22.8787 20.4853 21.1924L16.9497 17.6569ZM17.6569 16.9497L16.9497 17.6569L20.4853 21.1924L21.1924 20.4853L17.6569 16.9497ZM17.7567 16.3834C17.8452 16.5721 17.8071 16.7995 17.6569 16.9497L21.1924 20.4853C22.8787 18.799 23.2377 16.2953 22.2837 14.2607L17.7567 16.3834ZM19.5 12.5C19.5 12.7125 19.3661 12.9002 19.1701 12.971L20.8703 17.6731C22.9835 16.909 24.5 14.8848 24.5 12.5H19.5ZM19.5 11.5V12.5H24.5V11.5H19.5ZM19.1701 11.029C19.3661 11.0998 19.5 11.2875 19.5 11.5H24.5C24.5 9.1152 22.9835 7.09098 20.8703 6.32689L19.1701 11.029ZM17.6569 7.05025C17.8071 7.20053 17.8452 7.42786 17.7567 7.61658L22.2837 9.73927C23.2377 7.70469 22.8787 5.20103 21.1924 3.51472L17.6569 7.05025ZM16.9497 6.34315L17.6569 7.05025L21.1924 3.51472L20.4853 2.80761L16.9497 6.34315ZM16.3834 6.24333C16.5721 6.15484 16.7995 6.19287 16.9497 6.34315L20.4853 2.80761C18.799 1.1213 16.2953 0.762289 14.2607 1.71628L16.3834 6.24333ZM12.5 4.5C12.7125 4.5 12.9002 4.63386 12.971 4.82988L17.6731 3.12974C16.909 1.01649 14.8848 -0.5 12.5 -0.5V4.5ZM11.5 4.5H12.5V-0.5H11.5V4.5ZM11.029 4.82988C11.0998 4.63386 11.2875 4.5 11.5 4.5V-0.5C9.1152 -0.5 7.09098 1.01649 6.32689 3.12973L11.029 4.82988ZM7.05025 6.34314C7.20053 6.19287 7.42785 6.15484 7.61658 6.24333L9.73927 1.71628C7.70469 0.762289 5.20103 1.1213 3.51472 2.80761L7.05025 6.34314ZM6.34315 7.05025L7.05025 6.34314L3.51472 2.80761L2.80761 3.51472L6.34315 7.05025ZM6.24333 7.61658C6.15484 7.42785 6.19287 7.20053 6.34315 7.05025L2.80761 3.51472C1.12131 5.20102 0.76229 7.70469 1.71628 9.73927L6.24333 7.61658ZM4.5 11.5C4.5 11.2875 4.63386 11.0998 4.82988 11.029L3.12974 6.32689C1.01649 7.09098 -0.5 9.1152 -0.5 11.5H4.5ZM4.5 12.5V11.5H-0.5V12.5H4.5ZM4.82988 12.971C4.63385 12.9002 4.5 12.7125 4.5 12.5H-0.5C-0.5 14.8848 1.0165 16.909 3.12974 17.6731L4.82988 12.971ZM6.34315 16.9497C6.19287 16.7995 6.15484 16.5721 6.24333 16.3834L1.71628 14.2607C0.762286 16.2953 1.1213 18.799 2.80761 20.4853L6.34315 16.9497ZM7.05025 17.6569L6.34315 16.9497L2.80761 20.4853L3.51472 21.1924L7.05025 17.6569ZM11.5 12C11.5 11.7239 11.7239 11.5 12 11.5V16.5C14.4853 16.5 16.5 14.4853 16.5 12H11.5ZM12 12.5C11.7239 12.5 11.5 12.2761 11.5 12H16.5C16.5 9.51472 14.4853 7.5 12 7.5V12.5ZM12.5 12C12.5 12.2761 12.2761 12.5 12 12.5V7.5C9.51472 7.5 7.5 9.51472 7.5 12H12.5ZM12 11.5C12.2761 11.5 12.5 11.7239 12.5 12H7.5C7.5 14.4853 9.51472 16.5 12 16.5V11.5Z" fill="white" mask="url(#path-1-inside-1_2_5859)"/>
</svg>
