<svg width="24" height="24" viewBox="0 0 24 24" fill="none" xmlns="http://www.w3.org/2000/svg">
<path d="M5.02008 17.3478L6.18676 17.7965C6.33317 17.4159 6.28466 16.9877 6.05682 16.6495L5.02008 17.3478ZM4 20L2.83332 19.5513C2.65599 20.0123 2.76682 20.5346 3.11612 20.8839C3.46542 21.2332 3.98766 21.344 4.44872 21.1667L4 20ZM6.6522 18.9799L7.35054 17.9432C7.01228 17.7153 6.58413 17.6668 6.20348 17.8132L6.6522 18.9799ZM5.25 10C5.25 7.37665 7.37665 5.25 10 5.25V2.75C5.99594 2.75 2.75 5.99594 2.75 10H5.25ZM5.25 14V10H2.75V14H5.25ZM6.05682 16.6495C5.54734 15.8931 5.25 14.9832 5.25 14H2.75C2.75 15.4962 3.20458 16.89 3.98334 18.0461L6.05682 16.6495ZM5.16668 20.4487L6.18676 17.7965L3.8534 16.8991L2.83332 19.5513L5.16668 20.4487ZM6.20348 17.8132L3.55128 18.8333L4.44872 21.1667L7.10093 20.1466L6.20348 17.8132ZM10 18.75C9.01684 18.75 8.1069 18.4527 7.35054 17.9432L5.95387 20.0167C7.11002 20.7954 8.50381 21.25 10 21.25V18.75ZM14 18.75H10V21.25H14V18.75ZM18.75 14C18.75 16.6234 16.6234 18.75 14 18.75V21.25C18.0041 21.25 21.25 18.0041 21.25 14H18.75ZM18.75 10V14H21.25V10H18.75ZM14 5.25C16.6234 5.25 18.75 7.37665 18.75 10H21.25C21.25 5.99594 18.0041 2.75 14 2.75V5.25ZM10 5.25H14V2.75H10V5.25Z" fill="white"/>
<circle cx="9.5" cy="9.5" r="1.5" fill="white"/>
<circle cx="14.5" cy="9.5" r="1.5" fill="white"/>
<path d="M15 13C15 14.6569 13.6569 16 12 16C10.3431 16 9 14.6569 9 13" stroke="white" stroke-width="2.5"/>
</svg>
