<svg width="301" height="184" viewBox="0 0 301 184" fill="none" xmlns="http://www.w3.org/2000/svg">
<rect width="240" height="157" transform="matrix(-1 0 0 1 249 18)" fill="#EDE3FF"/>
<rect width="240" height="157" transform="matrix(-1 0 0 1 249 18)" stroke="#00005A" stroke-width="2" stroke-linejoin="round"/>
<path d="M1 183L9 175L0.999998 175L1 183Z" fill="#D4F2FF"/>
<path d="M9 175L1 183L9 183L9 175Z" fill="#D4F2FF"/>
<path d="M241 183L249 175L241 175L241 183Z" fill="#D4F2FF"/>
<path d="M9 18L1 26L9 26L9 18Z" fill="#D4F2FF"/>
<path d="M9 26L9 175L1 175L0.999998 26L9 26Z" fill="#D4F2FF"/>
<path d="M9.00002 175L241 175L241 183H9.00002V175Z" fill="#D4F2FF"/>
<path d="M1 26L9 18" stroke="#00005A" stroke-width="2" stroke-linecap="round" stroke-linejoin="round"/>
<path d="M1 183L0.999998 26" stroke="#00005A" stroke-width="2" stroke-linejoin="round"/>
<path d="M9 18L9 175" stroke="#00005A" stroke-width="2" stroke-linejoin="round"/>
<path d="M1 183H241" stroke="#00005A" stroke-width="2" stroke-linecap="round" stroke-linejoin="round"/>
<path d="M9 175L1 183" stroke="#00005A" stroke-width="2" stroke-linecap="round" stroke-linejoin="round"/>
<path d="M249 175L241 183" stroke="#00005A" stroke-width="2" stroke-linecap="round" stroke-linejoin="round"/>
<path d="M249 175H9" stroke="#00005A" stroke-width="2" stroke-linecap="round" stroke-linejoin="round"/>
<path d="M57.9577 76.5273C64.3737 76.5273 68.61 73.2227 68.61 67.8965C68.61 63.2031 65.6393 61.498 61.9127 60.6367L57.026 59.5117C55.7077 59.2129 55.0924 58.9141 55.0924 58C55.0924 57.0332 56.0241 56.5938 57.2194 56.5938C59.0299 56.5938 60.9284 57.6133 62.1237 58.3164C63.2311 58.9668 64.2506 59.4238 65.3229 59.4238C67.2213 59.4238 68.2936 57.9648 68.2936 56.1719C68.2936 54.959 67.8366 53.7285 66.3248 52.709C64.567 51.5137 61.7545 50.1602 58.0104 50.1602C51.7526 50.1602 47.7448 53.5879 47.7448 58.7207C47.7448 62.7988 49.9948 65.2598 54.5299 66.1738L59.6803 67.2109C60.7702 67.4219 61.3327 67.791 61.3327 68.582C61.3327 69.4785 60.4889 70.0762 58.5729 70.0762C56.692 70.0762 54.4772 69.1973 52.3678 67.8789C51.6647 67.4395 50.8737 67.1406 50.1178 67.1406C48.3073 67.1406 46.8834 68.6172 46.8834 70.4277C46.8834 71.6582 47.5514 72.8184 48.9225 73.8027C51.1901 75.4199 53.985 76.5273 57.9577 76.5273ZM80.7663 76.5273C82.8581 76.5273 84.9675 75.8594 86.3034 74.6641C87.2702 73.8027 87.657 72.6953 87.657 71.5879C87.657 70.0586 86.655 69.0215 85.1433 69.0215C84.0886 69.0215 83.4206 69.4785 83.0515 69.7422C82.5769 70.0762 82.1726 70.3398 81.7331 70.3398C81.153 70.3398 80.8015 70.1113 80.8015 69.0391V62.5H84.1062C85.8991 62.5 87.1648 61.3047 87.1648 59.582C87.1648 57.8594 85.8991 56.6641 84.1062 56.6641H80.8015V53.9395C80.8015 51.918 79.4655 50.5117 77.5144 50.5117C75.5632 50.5117 74.2273 51.918 74.2273 53.9395V56.6641H73.2253C71.4323 56.6641 70.1667 57.8594 70.1667 59.582C70.1667 61.3047 71.4323 62.5 73.2253 62.5H74.2273V70.0586C74.2273 73.8906 76.9167 76.5273 80.7663 76.5273ZM106.563 56.2246C104.63 56.2246 103.276 57.6309 103.276 59.6523V67.3516C103.276 69.3379 102.063 70.6035 100.182 70.6035C98.2664 70.6035 97.1063 69.4082 97.1063 67.3516V59.6523C97.1063 57.7012 95.7703 56.2246 93.8191 56.2246C91.9031 56.2246 90.532 57.666 90.532 59.6523V68.2656C90.532 73.5566 93.8543 76.5273 98.5301 76.5273C100.569 76.5273 102.468 75.8418 103.575 74.541C104.085 75.7188 105.175 76.4395 106.563 76.4395C108.497 76.4395 109.85 75.0332 109.85 73.0117V59.6523C109.85 57.6309 108.497 56.2246 106.563 56.2246ZM122.323 76.5273C124.679 76.5273 126.384 76.0176 127.684 74.7168C128.212 75.7891 129.249 76.4395 130.585 76.4395C132.536 76.4395 133.872 75.0332 133.872 73.0117V53.6758C133.872 51.6543 132.536 50.248 130.585 50.248C128.634 50.248 127.298 51.6543 127.298 53.6758V57.7891C126.067 56.7168 124.345 56.1367 122.323 56.1367C117.05 56.1367 112.989 60.1797 112.989 66.332C112.989 72.4844 117.05 76.5273 122.323 76.5273ZM119.722 66.332C119.722 63.8535 121.304 62.1133 123.554 62.1133C125.804 62.1133 127.386 63.8535 127.386 66.332C127.386 68.8105 125.804 70.5508 123.554 70.5508C121.304 70.5508 119.722 68.8105 119.722 66.332ZM138.698 62.4473L143.989 73.9961C143.55 74.3477 143.058 74.5586 142.565 74.5586C142.179 74.5586 141.458 74.3477 140.931 74.1191C140.526 73.9434 140.034 73.8379 139.718 73.8379C138.171 73.8379 137.011 75.332 137.011 77.002C137.011 77.8984 137.38 78.707 138.101 79.252C139.489 80.3242 140.895 80.7461 142.917 80.7461C146.415 80.7461 148.894 79.1289 150.423 75.7539L156.487 62.377C157.103 61.0234 157.419 59.8105 157.419 58.9141C157.419 57.332 156.048 56.1367 154.22 56.1367C152.339 56.1367 151.425 57.0508 150.335 59.6699L147.522 66.4023L144.692 59.4941C143.761 57.2266 142.97 56.1367 140.878 56.1367C138.927 56.1367 137.714 57.3496 137.714 59.0723C137.714 59.8281 138.03 60.9707 138.698 62.4473ZM177.443 76.5273C179.798 76.5273 181.503 76.0176 182.804 74.7168C183.331 75.7891 184.368 76.4395 185.704 76.4395C187.655 76.4395 188.991 75.0332 188.991 73.0117V59.6523C188.991 57.6309 187.655 56.2246 185.704 56.2246C184.316 56.2246 183.243 56.9277 182.734 58.0703C181.485 56.8223 179.64 56.1367 177.443 56.1367C172.169 56.1367 168.109 60.1797 168.109 66.332C168.109 72.4844 172.169 76.5273 177.443 76.5273ZM174.841 66.332C174.841 63.8535 176.423 62.1133 178.673 62.1133C180.923 62.1133 182.505 63.8535 182.505 66.332C182.505 68.8105 180.923 70.5508 178.673 70.5508C176.423 70.5508 174.841 68.8105 174.841 66.332ZM196.823 76.4395C198.775 76.4395 200.111 75.0332 200.111 73.0293V53.6582C200.111 51.6543 198.775 50.248 196.823 50.248C194.872 50.248 193.536 51.6543 193.536 53.6582V73.0293C193.536 75.0332 194.872 76.4395 196.823 76.4395ZM207.943 76.4395C209.894 76.4395 211.23 75.0332 211.23 73.0293V53.6582C211.23 51.6543 209.894 50.248 207.943 50.248C205.991 50.248 204.656 51.6543 204.656 53.6582V73.0293C204.656 75.0332 205.991 76.4395 207.943 76.4395ZM84.1737 118.527C86.5291 118.527 88.2342 118.018 89.535 116.717C90.0623 117.789 91.0995 118.439 92.4354 118.439C94.3866 118.439 95.7225 117.033 95.7225 115.012V95.6758C95.7225 93.6543 94.3866 92.248 92.4354 92.248C90.4842 92.248 89.1483 93.6543 89.1483 95.6758V99.7891C87.9178 98.7168 86.1952 98.1367 84.1737 98.1367C78.9002 98.1367 74.8397 102.18 74.8397 108.332C74.8397 114.484 78.9002 118.527 84.1737 118.527ZM81.5721 108.332C81.5721 105.854 83.1541 104.113 85.4041 104.113C87.6541 104.113 89.2362 105.854 89.2362 108.332C89.2362 110.811 87.6541 112.551 85.4041 112.551C83.1541 112.551 81.5721 110.811 81.5721 108.332ZM109.601 118.527C112.871 118.527 115.93 117.385 117.266 115.697C117.705 115.135 118.039 114.396 118.039 113.729C118.039 112.146 117.301 111.197 115.684 111.197C114.646 111.197 113.891 111.531 112.994 111.953C112.256 112.305 111.307 112.586 109.971 112.586C107.65 112.586 105.822 111.848 105.33 110.494H115.086C117.424 110.494 118.461 109.387 118.461 106.838C118.461 101.828 114.523 98.1367 108.969 98.1367C103.045 98.1367 98.7558 102.479 98.7558 108.438C98.7558 114.59 103.098 118.527 109.601 118.527ZM105.277 105.695C105.576 104.166 106.771 103.164 108.67 103.164C110.498 103.164 111.711 104.131 111.992 105.695H105.277ZM130.441 118.527C133.605 118.527 136.242 117.455 137.771 115.891C138.949 114.678 139.371 113.465 139.371 112.463C139.371 110.881 138.053 109.668 136.506 109.668C135.275 109.668 134.484 110.107 133.658 111.092C132.902 111.988 132.146 112.551 130.652 112.551C128.631 112.551 126.943 110.846 126.943 108.332C126.943 105.818 128.631 104.113 130.652 104.113C131.76 104.113 132.674 104.535 133.5 105.379C134.449 106.363 135.346 106.926 136.664 106.926C138.246 106.926 139.336 105.73 139.336 104.166C139.336 103.129 139.002 101.951 137.824 100.738C136.312 99.1914 133.922 98.1367 130.441 98.1367C124.641 98.1367 120.211 102.338 120.211 108.332C120.211 114.326 124.641 118.527 130.441 118.527ZM159.262 118.352C161.231 118.352 162.408 116.91 162.408 115.539C162.408 114.678 162.32 114.098 161.143 112.516L156.994 106.926L160.721 103.709C161.916 102.689 162.285 101.688 162.285 100.896C162.285 99.1738 161.037 98.1191 159.385 98.1191C158.172 98.1191 157.381 98.418 155.799 99.8066L149.014 105.783V95.6582C149.014 93.6543 147.678 92.248 145.727 92.248C143.775 92.248 142.44 93.6543 142.44 95.6582V115.029C142.44 117.033 143.775 118.439 145.727 118.439C147.678 118.439 149.014 117.033 149.014 115.029V113.816L152.02 111.215L156.186 116.805C157.152 118.105 158.365 118.352 159.262 118.352ZM173.826 118.527C179.188 118.527 182.527 115.926 182.527 111.725C182.527 108.666 180.699 106.785 176.815 105.871L173.756 105.15C172.877 104.939 172.455 104.588 172.455 104.061C172.455 103.568 172.93 103.27 173.703 103.27C174.512 103.27 175.338 103.498 176.551 104.201C177.658 104.852 178.537 105.344 179.522 105.344C180.981 105.344 182.053 104.307 182.053 102.9C182.053 101.705 181.49 100.703 180.348 99.877C178.836 98.7871 176.41 98.1367 173.844 98.1367C168.834 98.1367 165.688 100.598 165.688 104.535C165.688 107.488 167.744 109.598 171.488 110.477L174.231 111.127C175.356 111.391 175.725 111.689 175.725 112.322C175.725 112.885 175.18 113.184 174.195 113.184C172.877 113.184 171.84 112.797 170.223 111.707C169.168 111.004 168.395 110.723 167.481 110.723C165.951 110.723 164.949 111.707 164.949 113.236C164.949 114.115 165.16 114.783 165.635 115.381C167.147 117.297 170.346 118.527 173.826 118.527Z" fill="#00005A"/>
<rect x="52.5" y="135" width="87" height="24" rx="12" fill="#00C7A4"/>
<path d="M65.1722 142.273V151H63.3271V144.024H63.2759L61.2773 145.277V143.641L63.4379 142.273H65.1722ZM70.4723 151.119C69.8359 151.119 69.2692 151.01 68.772 150.791C68.2777 150.57 67.8871 150.266 67.6001 149.879C67.3161 149.49 67.1697 149.041 67.1612 148.533H69.0192C69.0305 148.746 69.1001 148.933 69.228 149.095C69.3587 149.254 69.532 149.378 69.7479 149.466C69.9638 149.554 70.2067 149.598 70.4766 149.598C70.7578 149.598 71.0064 149.548 71.2223 149.449C71.4382 149.349 71.6072 149.212 71.7294 149.036C71.8516 148.859 71.9126 148.656 71.9126 148.426C71.9126 148.193 71.8473 147.987 71.7166 147.808C71.5888 147.626 71.4041 147.484 71.1626 147.382C70.924 147.28 70.6399 147.229 70.3104 147.229H69.4964V145.874H70.3104C70.5888 145.874 70.8345 145.825 71.0476 145.729C71.2635 145.632 71.4311 145.499 71.5504 145.328C71.6697 145.155 71.7294 144.953 71.7294 144.723C71.7294 144.504 71.6768 144.312 71.5717 144.148C71.4695 143.98 71.3246 143.849 71.1371 143.756C70.9524 143.662 70.7365 143.615 70.4893 143.615C70.2393 143.615 70.0107 143.661 69.8033 143.751C69.5959 143.839 69.4297 143.966 69.3047 144.131C69.1797 144.295 69.1129 144.489 69.1044 144.71H67.3359C67.3445 144.207 67.4879 143.764 67.7663 143.381C68.0447 142.997 68.4197 142.697 68.8913 142.482C69.3658 142.263 69.9013 142.153 70.4979 142.153C71.1001 142.153 71.6271 142.263 72.0788 142.482C72.5305 142.7 72.8814 142.996 73.1314 143.368C73.3842 143.737 73.5092 144.152 73.5064 144.612C73.5092 145.101 73.3572 145.509 73.0504 145.835C72.7464 146.162 72.3501 146.369 71.8615 146.457V146.526C72.5036 146.608 72.9922 146.831 73.3274 147.195C73.6655 147.555 73.8331 148.007 73.8303 148.55C73.8331 149.047 73.6896 149.489 73.3999 149.875C73.1129 150.261 72.7166 150.565 72.2109 150.787C71.7053 151.009 71.1257 151.119 70.4723 151.119ZM75.0245 149.466V148.013L78.668 142.273H79.9208V144.284H79.1793L76.8825 147.919V147.987H82.06V149.466H75.0245ZM79.2134 151V149.023L79.2475 148.379V142.273H80.9776V151H79.2134ZM86.0838 151V144.455H87.8438V145.597H87.9119C88.0313 145.19 88.2315 144.884 88.5128 144.676C88.794 144.466 89.1179 144.361 89.4844 144.361C89.5753 144.361 89.6733 144.366 89.7784 144.378C89.8835 144.389 89.9759 144.405 90.0554 144.425V146.036C89.9702 146.01 89.8523 145.987 89.7017 145.967C89.5511 145.947 89.4134 145.938 89.2884 145.938C89.0213 145.938 88.7827 145.996 88.5724 146.112C88.3651 146.226 88.2003 146.385 88.0781 146.589C87.9588 146.794 87.8991 147.03 87.8991 147.297V151H86.0838ZM93.6722 151.128C92.9989 151.128 92.4194 150.991 91.9336 150.719C91.4506 150.443 91.0785 150.054 90.8171 149.551C90.5558 149.045 90.4251 148.447 90.4251 147.757C90.4251 147.084 90.5558 146.493 90.8171 145.984C91.0785 145.476 91.4464 145.08 91.9208 144.795C92.3981 144.511 92.9577 144.369 93.5998 144.369C94.0316 144.369 94.4336 144.439 94.8058 144.578C95.1808 144.714 95.5075 144.92 95.7859 145.196C96.0671 145.472 96.2859 145.818 96.4421 146.236C96.5984 146.651 96.6765 147.136 96.6765 147.693V148.192H91.1495V147.067H94.9677C94.9677 146.805 94.9109 146.574 94.7972 146.372C94.6836 146.17 94.5259 146.013 94.3242 145.899C94.1254 145.783 93.8938 145.724 93.6296 145.724C93.354 145.724 93.1097 145.788 92.8967 145.916C92.6864 146.041 92.5217 146.21 92.4023 146.423C92.283 146.634 92.2219 146.868 92.2191 147.126V148.196C92.2191 148.52 92.2788 148.8 92.3981 149.036C92.5202 149.271 92.6921 149.453 92.9137 149.581C93.1353 149.709 93.3981 149.773 93.7021 149.773C93.9038 149.773 94.0884 149.744 94.256 149.688C94.4237 149.631 94.5671 149.545 94.6864 149.432C94.8058 149.318 94.8967 149.179 94.9592 149.014L96.6381 149.125C96.5529 149.528 96.3782 149.881 96.114 150.182C95.8526 150.48 95.5146 150.713 95.0998 150.881C94.6879 151.045 94.212 151.128 93.6722 151.128ZM103.788 144.455L101.499 151H99.4538L97.1655 144.455H99.0831L100.442 149.138H100.511L101.866 144.455H103.788ZM104.717 151V144.455H106.532V151H104.717ZM105.629 143.611C105.359 143.611 105.127 143.521 104.934 143.342C104.744 143.161 104.648 142.943 104.648 142.69C104.648 142.44 104.744 142.226 104.934 142.047C105.127 141.865 105.359 141.774 105.629 141.774C105.898 141.774 106.129 141.865 106.319 142.047C106.512 142.226 106.609 142.44 106.609 142.69C106.609 142.943 106.512 143.161 106.319 143.342C106.129 143.521 105.898 143.611 105.629 143.611ZM110.969 151.128C110.296 151.128 109.716 150.991 109.23 150.719C108.748 150.443 108.375 150.054 108.114 149.551C107.853 149.045 107.722 148.447 107.722 147.757C107.722 147.084 107.853 146.493 108.114 145.984C108.375 145.476 108.743 145.08 109.218 144.795C109.695 144.511 110.255 144.369 110.897 144.369C111.328 144.369 111.73 144.439 112.103 144.578C112.478 144.714 112.804 144.92 113.083 145.196C113.364 145.472 113.583 145.818 113.739 146.236C113.895 146.651 113.973 147.136 113.973 147.693V148.192H108.446V147.067H112.265C112.265 146.805 112.208 146.574 112.094 146.372C111.98 146.17 111.823 146.013 111.621 145.899C111.422 145.783 111.191 145.724 110.926 145.724C110.651 145.724 110.407 145.788 110.194 145.916C109.983 146.041 109.819 146.21 109.699 146.423C109.58 146.634 109.519 146.868 109.516 147.126V148.196C109.516 148.52 109.576 148.8 109.695 149.036C109.817 149.271 109.989 149.453 110.211 149.581C110.432 149.709 110.695 149.773 110.999 149.773C111.201 149.773 111.385 149.744 111.553 149.688C111.721 149.631 111.864 149.545 111.983 149.432C112.103 149.318 112.194 149.179 112.256 149.014L113.935 149.125C113.85 149.528 113.675 149.881 113.411 150.182C113.15 150.48 112.811 150.713 112.397 150.881C111.985 151.045 111.509 151.128 110.969 151.128ZM116.402 151L114.621 144.455H116.458L117.472 148.852H117.532L118.588 144.455H120.391L121.465 148.827H121.52L122.517 144.455H124.35L122.573 151H120.651L119.526 146.884H119.445L118.32 151H116.402ZM130.764 146.321L129.102 146.423C129.074 146.281 129.013 146.153 128.919 146.04C128.825 145.923 128.702 145.831 128.548 145.763C128.398 145.692 128.217 145.656 128.007 145.656C127.726 145.656 127.489 145.716 127.295 145.835C127.102 145.952 127.006 146.108 127.006 146.304C127.006 146.46 127.068 146.592 127.193 146.7C127.318 146.808 127.533 146.895 127.837 146.96L129.021 147.199C129.658 147.33 130.132 147.54 130.445 147.83C130.757 148.119 130.913 148.5 130.913 148.972C130.913 149.401 130.787 149.777 130.534 150.101C130.284 150.425 129.94 150.678 129.503 150.859C129.068 151.038 128.567 151.128 127.999 151.128C127.132 151.128 126.442 150.947 125.928 150.587C125.416 150.223 125.116 149.729 125.028 149.104L126.814 149.01C126.868 149.274 126.999 149.476 127.206 149.615C127.413 149.751 127.679 149.82 128.003 149.82C128.321 149.82 128.577 149.759 128.77 149.636C128.966 149.511 129.065 149.351 129.068 149.155C129.065 148.99 128.996 148.855 128.859 148.75C128.723 148.642 128.513 148.56 128.229 148.503L127.095 148.277C126.456 148.149 125.98 147.928 125.668 147.612C125.358 147.297 125.203 146.895 125.203 146.406C125.203 145.986 125.317 145.624 125.544 145.32C125.774 145.016 126.097 144.781 126.511 144.616C126.929 144.452 127.418 144.369 127.977 144.369C128.804 144.369 129.455 144.544 129.929 144.893C130.406 145.243 130.685 145.719 130.764 146.321Z" fill="white"/>
<rect x="147.5" y="135" width="58" height="24" rx="12" fill="#3C91FF"/>
<path d="M160.315 142.273V151H158.47V144.024H158.419L156.42 145.277V143.641L158.58 142.273H160.315ZM165.645 151.119C164.988 151.119 164.405 151.013 163.893 150.8C163.385 150.584 162.986 150.29 162.696 149.918C162.406 149.545 162.261 149.124 162.261 148.652C162.261 148.288 162.344 147.955 162.508 147.651C162.676 147.344 162.903 147.089 163.19 146.888C163.477 146.683 163.798 146.553 164.153 146.496V146.436C163.687 146.342 163.309 146.116 163.02 145.759C162.73 145.398 162.585 144.979 162.585 144.501C162.585 144.05 162.717 143.648 162.981 143.295C163.246 142.94 163.608 142.662 164.068 142.46C164.531 142.256 165.057 142.153 165.645 142.153C166.233 142.153 166.757 142.256 167.217 142.46C167.68 142.665 168.044 142.945 168.308 143.3C168.572 143.652 168.706 144.053 168.709 144.501C168.706 144.982 168.558 145.401 168.265 145.759C167.973 146.116 167.598 146.342 167.14 146.436V146.496C167.49 146.553 167.807 146.683 168.091 146.888C168.378 147.089 168.605 147.344 168.773 147.651C168.943 147.955 169.03 148.288 169.032 148.652C169.03 149.124 168.883 149.545 168.594 149.918C168.304 150.29 167.903 150.584 167.392 150.8C166.883 151.013 166.301 151.119 165.645 151.119ZM165.645 149.764C165.937 149.764 166.193 149.712 166.412 149.607C166.631 149.499 166.801 149.351 166.923 149.163C167.048 148.973 167.111 148.754 167.111 148.507C167.111 148.254 167.047 148.031 166.919 147.838C166.791 147.642 166.618 147.489 166.399 147.378C166.18 147.264 165.929 147.207 165.645 147.207C165.363 147.207 165.112 147.264 164.89 147.378C164.669 147.489 164.494 147.642 164.366 147.838C164.241 148.031 164.179 148.254 164.179 148.507C164.179 148.754 164.24 148.973 164.362 149.163C164.484 149.351 164.656 149.499 164.878 149.607C165.099 149.712 165.355 149.764 165.645 149.764ZM165.645 145.865C165.889 145.865 166.106 145.815 166.297 145.716C166.487 145.616 166.636 145.479 166.744 145.303C166.852 145.126 166.906 144.923 166.906 144.693C166.906 144.466 166.852 144.267 166.744 144.097C166.636 143.923 166.488 143.788 166.301 143.692C166.113 143.592 165.895 143.543 165.645 143.543C165.398 143.543 165.179 143.592 164.988 143.692C164.798 143.788 164.649 143.923 164.541 144.097C164.436 144.267 164.383 144.466 164.383 144.693C164.383 144.923 164.437 145.126 164.545 145.303C164.653 145.479 164.802 145.616 164.993 145.716C165.183 145.815 165.4 145.865 165.645 145.865ZM174.932 147.216V151H173.117V144.455H174.847V145.609H174.924C175.069 145.229 175.312 144.928 175.653 144.706C175.993 144.482 176.407 144.369 176.893 144.369C177.347 144.369 177.743 144.469 178.081 144.668C178.42 144.866 178.682 145.151 178.87 145.52C179.057 145.886 179.151 146.324 179.151 146.832V151H177.336V147.156C177.339 146.756 177.236 146.443 177.029 146.219C176.822 145.991 176.536 145.878 176.172 145.878C175.928 145.878 175.712 145.93 175.525 146.036C175.34 146.141 175.195 146.294 175.09 146.496C174.988 146.695 174.935 146.935 174.932 147.216ZM183.565 151.128C182.892 151.128 182.312 150.991 181.826 150.719C181.343 150.443 180.971 150.054 180.71 149.551C180.448 149.045 180.318 148.447 180.318 147.757C180.318 147.084 180.448 146.493 180.71 145.984C180.971 145.476 181.339 145.08 181.813 144.795C182.291 144.511 182.85 144.369 183.492 144.369C183.924 144.369 184.326 144.439 184.698 144.578C185.073 144.714 185.4 144.92 185.678 145.196C185.96 145.472 186.178 145.818 186.335 146.236C186.491 146.651 186.569 147.136 186.569 147.693V148.192H181.042V147.067H184.86C184.86 146.805 184.803 146.574 184.69 146.372C184.576 146.17 184.419 146.013 184.217 145.899C184.018 145.783 183.786 145.724 183.522 145.724C183.247 145.724 183.002 145.788 182.789 145.916C182.579 146.041 182.414 146.21 182.295 146.423C182.176 146.634 182.115 146.868 182.112 147.126V148.196C182.112 148.52 182.171 148.8 182.291 149.036C182.413 149.271 182.585 149.453 182.806 149.581C183.028 149.709 183.291 149.773 183.595 149.773C183.796 149.773 183.981 149.744 184.149 149.688C184.316 149.631 184.46 149.545 184.579 149.432C184.698 149.318 184.789 149.179 184.852 149.014L186.531 149.125C186.445 149.528 186.271 149.881 186.007 150.182C185.745 150.48 185.407 150.713 184.992 150.881C184.58 151.045 184.105 151.128 183.565 151.128ZM188.998 151L187.217 144.455H189.053L190.068 148.852H190.127L191.184 144.455H192.987L194.061 148.827H194.116L195.113 144.455H196.945L195.169 151H193.247L192.122 146.884H192.041L190.916 151H188.998Z" fill="white"/>
<path d="M1 183L0.999998 26" stroke="#00005A" stroke-width="2" stroke-linejoin="round"/>
<path d="M1 183H241" stroke="#00005A" stroke-width="2" stroke-linecap="round" stroke-linejoin="round"/>
</svg>
