<svg width="80" height="80" viewBox="0 0 80 80" fill="none" xmlns="http://www.w3.org/2000/svg">
<g clip-path="url(#clip0_2_5843)">
<g clip-path="url(#clip1_2_5843)">
<rect x="8" y="8" width="64" height="64" rx="32" fill="#ED1B2F"/>
<path d="M41.3149 17.9467L43.6772 19.0893L45.5677 17.2727L45.2114 19.8725L47.5223 21.1114L44.9418 21.5736L44.4796 24.1541L43.2407 21.8432L40.6409 22.1995L42.4576 20.309L41.3149 17.9467ZM56.2878 27.3862L55.1451 29.7452L56.9618 31.6389L54.3652 31.2794L53.1263 33.5936L52.6641 31.0098L50.0804 30.5476L52.3945 29.3087L52.035 26.7122L53.9287 28.5288L56.2878 27.3862ZM53.2162 39.5153L54.0763 41.9931L56.6986 42.0477L54.6091 43.63L55.3698 46.1431L53.2162 44.6442L51.0625 46.1431L51.82 43.63L49.7305 42.0477L52.3528 41.9931L53.2162 39.5153ZM41.3149 50.0428L43.6772 51.1854L45.5677 49.3688L45.2114 51.9686L47.5223 53.2075L44.9418 53.6697L44.4796 56.2502L43.2407 53.9393L40.6409 54.2955L42.4576 52.4051L41.3149 50.0428ZM28.04 24.2825L31.0217 32.8554L40.0921 33.0415L32.8608 38.5235L35.4895 47.2087L28.04 42.0252L20.5905 47.2087L23.2192 38.5235L15.9879 33.0415L25.0583 32.8554L28.04 24.2825Z" fill="#FFCE00"/>
</g>
</g>
<rect x="4" y="4" width="72" height="72" rx="36" stroke="white" stroke-opacity="0.2" stroke-width="8"/>
<defs>
<clipPath id="clip0_2_5843">
<rect x="8" y="8" width="64" height="64" rx="32" fill="white"/>
</clipPath>
<clipPath id="clip1_2_5843">
<rect x="8" y="8" width="64" height="64" rx="32" fill="white"/>
</clipPath>
</defs>
</svg>
